<svg width="54" height="53" viewBox="0 0 54 53" fill="none" xmlns="http://www.w3.org/2000/svg">
<path d="M43.9028 0.615927C43.6722 0.463997 43.3621 0.527763 43.2102 0.758353C43.0583 0.988943 43.122 1.29904 43.3526 1.45097L43.9028 0.615927ZM3.924 52.4093C4.13504 52.5874 4.4505 52.5607 4.62859 52.3496L7.53081 48.9106C7.70891 48.6995 7.6822 48.3841 7.47116 48.206C7.26013 48.0279 6.94467 48.0546 6.76658 48.2656L4.18683 51.3226L1.12989 48.7428C0.918848 48.5647 0.603394 48.5914 0.4253 48.8025C0.247205 49.0135 0.27391 49.329 0.484948 49.5071L3.924 52.4093ZM43.3526 1.45097C47.838 4.4063 50.4787 6.87996 51.736 8.98902C52.3598 10.0354 52.6322 10.9743 52.6366 11.828C52.6408 12.6785 52.3792 13.4837 51.8704 14.2668C50.8377 15.8564 48.809 17.3217 46.0522 18.7666C43.3095 20.204 39.9229 21.5834 36.2492 23.036C28.9293 25.9304 20.4817 29.1081 14.0438 33.5663C7.5909 38.035 3.05367 43.8646 3.74826 52.0693L4.74469 51.985C4.09289 44.2857 8.30705 38.7554 14.6131 34.3885C20.9342 30.0111 29.253 26.8778 36.6169 23.9659C40.2852 22.5155 43.7198 21.118 46.5164 19.6523C49.2989 18.194 51.5276 16.63 52.709 14.8116C53.3073 13.8907 53.642 12.8972 53.6365 11.8229C53.6311 10.7517 53.2879 9.63944 52.5949 8.47697C51.2186 6.16826 48.4212 3.59303 43.9028 0.615927L43.3526 1.45097Z" fill="#7D298A"/>
</svg>
