<svg width="62" height="12" viewBox="0 0 62 12" fill="none" xmlns="http://www.w3.org/2000/svg">
<path d="M60.2573 11.6599C60.3938 11.8999 60.6991 11.9838 60.9391 11.8473C61.1791 11.7108 61.263 11.4055 61.1265 11.1655L60.2573 11.6599ZM2.11466 0.8406C1.85269 0.753276 1.56953 0.894856 1.4822 1.15683L0.0591763 5.4259C-0.0281475 5.68787 0.113433 5.97103 0.375404 6.05836C0.637376 6.14568 0.920536 6.0041 1.00786 5.74213L2.27277 1.9474L6.0675 3.21231C6.32948 3.29963 6.61264 3.15805 6.69996 2.89608C6.78728 2.63411 6.6457 2.35095 6.38373 2.26362L2.11466 0.8406ZM61.1265 11.1655C59.7716 8.7836 57.9936 7.22492 55.8932 6.2906C53.8022 5.36048 51.4211 5.06189 48.871 5.14623C43.7935 5.31415 37.8883 7.01316 32.0244 8.46607C26.1166 9.92986 20.234 11.1502 15.057 10.4673C9.9307 9.79115 5.48158 7.24698 2.40376 1.09133L1.50933 1.53855C4.74261 8.00511 9.48666 10.7412 14.9262 11.4588C20.3151 12.1696 26.371 10.8971 32.2649 9.43672C38.2028 7.96549 43.9626 6.3091 48.904 6.14569C51.3633 6.06435 53.5801 6.35612 55.4868 7.20428C57.3841 8.04823 59.0035 9.45576 60.2573 11.6599L61.1265 11.1655Z" fill="#7D298A"/>
</svg>
