<svg width="38" height="44" viewBox="0 0 38 44" fill="none" xmlns="http://www.w3.org/2000/svg">
<path d="M36.1656 43.6162C36.2399 43.8822 36.5157 44.0376 36.7816 43.9634C37.0476 43.8892 37.2031 43.6134 37.1288 43.3474L36.1656 43.6162ZM1.47331 27.662L0.982759 27.7587L1.47331 27.662ZM18.0688 0.245224C17.7985 0.188652 17.5335 0.361902 17.4769 0.632188L16.5551 5.03675C16.4985 5.30703 16.6717 5.572 16.942 5.62857C17.2123 5.68514 17.4773 5.51189 17.5339 5.24161L18.3533 1.32645L22.2685 2.1459C22.5388 2.20247 22.8037 2.02922 22.8603 1.75893C22.9169 1.48865 22.7436 1.22368 22.4733 1.16711L18.0688 0.245224ZM37.1288 43.3474C36.0799 39.5888 33.1421 35.9642 29.4383 32.8414C25.7247 29.7104 21.1893 27.04 16.8572 25.2031C12.5401 23.3726 8.36069 22.3425 5.37116 22.5588C3.87671 22.6669 2.59749 23.0928 1.77618 23.9772C0.936048 24.8818 0.668 26.1624 0.982759 27.7587L1.96387 27.5653C1.68959 26.1743 1.95272 25.2566 2.50892 24.6577C3.08395 24.0385 4.0662 23.6558 5.44331 23.5562C8.19689 23.357 12.2009 24.315 16.4669 26.1238C20.7179 27.9263 25.1653 30.5467 28.7937 33.6059C32.4318 36.6733 35.195 40.1381 36.1656 43.6162L37.1288 43.3474ZM0.982759 27.7587C1.22949 29.01 1.93894 29.836 2.979 30.2068C3.97971 30.5636 5.21991 30.4758 6.52979 30.0879C9.15834 29.3093 12.3111 27.2508 15.0217 24.3879C20.4407 18.6642 24.2867 9.48744 18.3848 0.460994L17.5479 1.00824C23.0901 9.48459 19.5525 18.1479 14.2955 23.7003C11.668 26.4755 8.65963 28.4141 6.24579 29.129C5.03447 29.4878 4.03317 29.521 3.31481 29.2649C2.6358 29.0228 2.14861 28.5022 1.96387 27.5653L0.982759 27.7587Z" fill="#7D298A"/>
</svg>
